<svg xmlns="http://www.w3.org/2000/svg" viewBox="0 0 200 200" width="200" height="200">
  <defs>
    <clipPath id="shield-clip">
      <circle cx="100" cy="100" r="96"/>
    </clipPath>
  </defs>
  <circle cx="100" cy="100" r="98" fill="#0a0a0a" stroke="#444" stroke-width="1.5"/>
  <circle cx="100" cy="100" r="93" fill="none" stroke="#555" stroke-width="0.8"/>
  <g clip-path="url(#shield-clip)">
    <rect x="4" y="4" width="96" height="192" fill="#1a1a2e"/>
    <rect x="100" y="4" width="96" height="192" fill="#1a1a2e"/>
    <line x1="100" y1="4" x2="100" y2="196" stroke="#555" stroke-width="2"/>
    <line x1="4" y1="100" x2="196" y2="100" stroke="#555" stroke-width="2"/>
    <g transform="translate(52,20)" fill="#c8102e">
      <rect x="0" y="0" width="8" height="80" rx="1"/>
      <rect x="20" y="0" width="8" height="80" rx="1"/>
      <rect x="-4" y="0" width="36" height="8" rx="1"/>
      <rect x="-4" y="24" width="36" height="8" rx="1"/>
      <rect x="-4" y="48" width="36" height="8" rx="1"/>
    </g>
    <g transform="translate(108,14)">
      <path d="M40,12 C40,8 36,4 30,4 C24,4 20,8 18,12 C14,8 8,6 4,10 C0,14 2,20 6,22 C2,26 -2,34 4,40 C8,44 14,42 18,38 C20,42 24,46 30,46 C36,46 40,42 40,38 C40,34 36,30 30,30 C24,30 20,34 18,38" fill="none" stroke="#2d8a4e" stroke-width="3.5" stroke-linecap="round"/>
      <path d="M30,4 C32,0 38,-2 42,2 C46,6 44,12 40,14 M18,12 C16,8 12,6 8,8 C4,10 4,16 6,20" fill="none" stroke="#2d8a4e" stroke-width="3" stroke-linecap="round"/>
      <path d="M18,38 L14,46 L10,58 L8,68 L10,76 L16,80 L22,78 L26,72 L24,64 L20,56 L18,48 Z" fill="#2d8a4e" opacity="0.9"/>
      <circle cx="34" cy="22" r="3" fill="#2d8a4e"/>
      <circle cx="34" cy="22" r="1.5" fill="#1a1a2e"/>
      <path d="M38,16 L44,12 M42,18 L48,14 M36,20 L42,16" stroke="#2d8a4e" stroke-width="1.5" stroke-linecap="round"/>
    </g>
  </g>
  <text x="100" y="185" text-anchor="middle" font-family="sans-serif" font-size="11" font-weight="700" fill="#888" letter-spacing="4">MILANO</text>
</svg>
