<svg xmlns="http://www.w3.org/2000/svg" viewBox="0 0 64 64" width="64" height="64">
  <circle cx="32" cy="32" r="31" fill="#0a0a0a"/>
  <circle cx="32" cy="32" r="29.5" fill="none" stroke="#555" stroke-width="0.5"/>
  <g>
    <line x1="32" y1="1" x2="32" y2="63" stroke="#555" stroke-width="1.2"/>
    <line x1="1" y1="32" x2="63" y2="32" stroke="#555" stroke-width="1.2"/>
  </g>
  <g transform="translate(14,3) scale(0.45)">
    <rect x="0" y="0" width="8" height="80" rx="1" fill="#c8102e"/>
    <rect x="20" y="0" width="8" height="80" rx="1" fill="#c8102e"/>
    <rect x="-4" y="0" width="36" height="8" rx="1" fill="#c8102e"/>
    <rect x="-4" y="24" width="36" height="8" rx="1" fill="#c8102e"/>
    <rect x="-4" y="48" width="36" height="8" rx="1" fill="#c8102e"/>
  </g>
  <g transform="translate(35,3) scale(0.45)">
    <path d="M40,12 C40,8 36,4 30,4 C24,4 20,8 18,12 C14,8 8,6 4,10 C0,14 2,20 6,22 C2,26 -2,34 4,40 C8,44 14,42 18,38 C20,42 24,46 30,46 C36,46 40,42 40,38" fill="none" stroke="#2d8a4e" stroke-width="3.5" stroke-linecap="round"/>
    <path d="M18,38 L14,50 L10,62 L8,70 L10,76 L16,80 L22,78 L26,72 L24,64 L20,56 L18,48 Z" fill="#2d8a4e" opacity="0.9"/>
    <circle cx="34" cy="22" r="3" fill="#2d8a4e"/>
    <circle cx="34" cy="22" r="1.5" fill="#0a0a0a"/>
  </g>
</svg>
