<svg xmlns="http://www.w3.org/2000/svg" width="64" height="64" viewBox="0 0 192.756 192.756"><g fill-rule="evenodd" clip-rule="evenodd"><path fill="#0a0c10" d="M0 0h192.756v192.756H0V0z"/><path fill="#fde62f" d="M189.922 96.378l-.375-8.114-1.053-8.116-1.801-7.974-2.431-7.788-3.133-7.506-3.742-7.227-4.42-6.875-4.934-6.478-5.543-6.033-6.035-5.542-6.476-4.935-6.829-4.42-7.273-3.742-7.508-3.134-7.787-2.432-7.975-1.8-8.115-1.053-8.114-.374-8.138.374-8.139 1.053-7.951 1.8-7.787 2.432-7.53 3.134-7.227 3.742-6.875 4.42-6.478 4.935-6.01 5.542L24.7 36.3l-4.934 6.478-4.42 6.828-3.742 7.274-3.157 7.506-2.432 7.788-1.777 7.974-1.052 8.116-.352 8.114.352 8.138 1.052 8.139 1.777 7.927 2.432 7.812 3.157 7.53 3.742 7.225 4.42 6.876 4.934 6.478 5.543 6.011 5.986 5.542 6.502 4.934 6.852 4.42 7.25 3.741 7.53 3.158 7.787 2.431 7.951 1.778 8.139 1.052 8.115.352 8.137-.352 8.115-1.052 7.928-1.778 7.787-2.431 7.555-3.158 7.227-3.741 6.875-4.42 6.476-4.934 6.035-5.542 5.543-5.988 4.934-6.501 4.42-6.852 3.742-7.249 3.133-7.53 2.431-7.789 1.801-7.95 1.053-8.139.375-8.138z"/><path fill="#505e86" d="M158.889 97.711l-.258-5.659-.795-5.613-1.264-5.496-1.754-5.401-2.291-5.192-2.736-4.981-3.135-4.724-3.601-4.374-3.951-4.069-4.303-3.671-4.655-3.251-4.886-2.853-5.168-2.385-5.309-1.871-5.496-1.427-5.613-.889-5.658-.373-2.831.023v124.389l2.831.093 5.658-.421 5.613-.888 5.496-1.403 5.309-1.894 5.168-2.362 4.886-2.853 4.655-3.274 4.303-3.672 3.951-4.046 3.601-4.42 3.135-4.677 2.736-4.981 2.291-5.192 1.754-5.379 1.264-5.543.795-5.611.258-5.66z"/></g></svg>
